# Blender v2.79 (sub 0) OBJ File: 'conveyer_forward.blend'
# www.blender.org
mtllib conveyer_corner.mtl
o Cube.004
v 0.813206 0.000000 0.841251
v 0.813207 1.004622 0.841251
v -0.836176 -0.000000 -0.808131
v -0.836175 1.004622 -0.808131
v 0.813206 0.000000 -0.457513
v 0.813207 1.004622 -0.457514
v 0.462588 -0.000000 -0.808131
v 0.462588 1.004622 -0.808131
v -0.841749 0.000000 0.297030
v -0.291955 0.000000 0.846824
v -0.291954 1.004622 0.846825
v -0.841749 1.004622 0.297031
v 0.625289 0.000000 -0.513490
v 0.508416 0.000000 -0.630363
v 0.508416 1.004622 -0.630363
v 0.625289 1.004622 -0.513491
vn -1.0000 0.0000 -0.0050
vn 0.0000 0.0000 -1.0000
vn 0.2855 -0.0000 -0.9584
vn 1.0000 -0.0000 0.0000
vn 0.0000 -1.0000 0.0000
vn 0.0000 1.0000 0.0000
vn 0.9683 0.0000 -0.2496
vn 0.7071 -0.0000 -0.7071
vn 0.0050 -0.0000 1.0000
vn -0.7071 0.0000 0.7071
usemtl None
s off
f 9//1 12//1 4//1 3//1
f 3//2 4//2 8//2 7//2
f 13//3 16//3 6//3 5//3
f 5//4 6//4 2//4 1//4
f 10//5 13//5 5//5 1//5
f 16//6 11//6 2//6 6//6
f 8//6 4//6 12//6 15//6
f 15//6 12//6 11//6 16//6
f 3//5 7//5 14//5 9//5
f 9//5 14//5 13//5 10//5
f 7//7 8//7 15//7 14//7
f 14//8 15//8 16//8 13//8
f 1//9 2//9 11//9 10//9
f 10//10 11//10 12//10 9//10
