# Blender v2.79 (sub 0) OBJ File: 'conveyer_forward.blend'
# www.blender.org
mtllib conveyer_forward.mtl
o Cube
v 0.649382 -0.004622 -1.000000
v 0.649382 -0.004622 1.000000
v 0.649383 1.000000 -0.999999
v 0.649381 1.000000 1.000001
v -0.649382 -0.004622 -1.000000
v -0.649382 -0.004622 1.000000
v -0.649383 1.000000 -0.999999
v -0.649381 1.000000 1.000001
v 0.000000 -0.004622 -1.000000
v 0.000000 -0.004622 1.000000
v 0.000000 1.000000 -1.000000
v 0.000000 1.000000 1.000000
vt 1.000000 0.500000
vt 0.721105 0.500000
vt 0.721105 0.000000
vt 1.000000 0.000000
vt 0.278895 0.500000
vt 0.557790 0.500000
vt 0.557790 0.662346
vt 0.278895 0.662346
vt 0.836685 0.824691
vt 0.557790 0.824691
vt 0.557790 0.662346
vt 0.836685 0.662345
vt 0.360552 0.500000
vt 0.180276 0.500000
vt 0.180276 0.000000
vt 0.360552 0.000000
vt 0.721105 0.000000
vt 0.721105 0.500000
vt 0.540829 0.500000
vt 0.540829 0.000000
vt 0.000000 1.000000
vt 0.000000 0.500000
vt 0.278895 0.500000
vt 0.278895 1.000000
vt 0.278895 0.824691
vt 0.557790 0.824691
vt 0.836685 0.500000
vt 0.557790 0.500000
vt 0.000000 0.500000
vt 0.000001 0.000000
vt 0.360552 0.000000
vt 0.360553 0.500000
vn 1.0000 0.0000 0.0000
vn 0.0000 0.0000 -1.0000
vn -0.0000 -0.0000 1.0000
vn 0.0000 1.0000 0.0000
vn 0.0000 -1.0000 0.0000
vn -1.0000 0.0000 0.0000
usemtl Material
s off
f 1/1/1 3/2/1 4/3/1 2/4/1
f 3/5/2 1/6/2 9/7/2 11/8/2
f 2/9/3 4/10/3 12/11/3 10/12/3
f 3/13/4 11/14/4 12/15/4 4/16/4
f 1/17/5 2/18/5 10/19/5 9/20/5
f 5/21/6 6/22/6 8/23/6 7/24/6
f 7/25/2 11/8/2 9/7/2 5/26/2
f 6/27/3 10/12/3 12/11/3 8/28/3
f 7/29/4 8/30/4 12/15/4 11/14/4
f 5/31/5 9/20/5 10/19/5 6/32/5
