# Blender v2.79 (sub 0) OBJ File: 'conveyer_forward.blend'
# www.blender.org
mtllib input.mtl
o Cube.001
v -1.000000 0.000000 1.000000
v -0.822355 2.000000 0.822355
v -1.000000 0.000000 -1.000000
v -0.822355 2.000000 -0.822355
v 1.000000 0.000000 1.000000
v 0.822355 2.000000 0.822355
v 1.000000 0.000000 -1.000000
v 0.822355 2.000000 -0.822355
v -1.000000 2.000000 1.000000
v -1.000000 2.000000 -1.000000
v 1.000000 2.000000 -1.000000
v 1.000000 2.000000 1.000000
v -0.822355 1.006036 0.822355
v -0.822355 1.006036 -0.822355
v 0.822355 1.006036 -0.822355
v 0.822355 1.006036 0.822355
v 0.745102 0.000000 -1.000000
v 0.745102 2.000000 -1.000000
v 0.745102 0.000000 1.000000
v 0.745102 2.000000 1.000000
v 0.612738 2.000000 -0.822355
v 0.612738 2.000000 0.822355
v 0.612738 1.006036 -0.822355
v 0.612738 1.006036 0.822355
v -0.731577 0.000000 -1.000000
v -0.731577 2.000000 1.000000
v -0.601616 2.000000 0.822355
v -0.601616 1.006036 0.822355
v -0.731577 2.000000 -1.000000
v -0.731577 0.000000 1.000000
v -0.601616 2.000000 -0.822355
v -0.601616 1.006036 -0.822355
v -1.000000 1.072581 1.000000
v -1.000000 1.072581 -1.000000
v 1.000000 1.072581 -1.000000
v 1.000000 1.072581 1.000000
v 0.745102 1.072581 1.000000
v 0.745102 1.072581 -1.000000
v -0.731577 1.072581 -1.000000
v -0.731577 1.072581 1.000000
vn -1.0000 0.0000 0.0000
vn 0.0000 0.0000 -1.0000
vn 1.0000 0.0000 0.0000
vn 0.0000 0.0000 1.0000
vn 0.0000 -1.0000 0.0000
vn 0.0000 1.0000 0.0000
vn 0.8071 0.0000 0.5904
vn -0.8019 0.0000 0.5975
vn 0.0000 0.9365 -0.3508
usemtl None
s off
f 33//1 9//1 10//1 34//1
f 38//2 18//2 11//2 35//2
f 35//3 11//3 12//3 36//3
f 40//4 26//4 9//4 33//4
f 17//5 7//5 5//5 19//5
f 4//3 2//3 13//3 14//3
f 2//6 4//6 10//6 9//6
f 21//6 8//6 11//6 18//6
f 8//6 6//6 12//6 11//6
f 27//6 2//6 9//6 26//6
f 32//6 14//6 13//6 28//6
f 22//2 6//2 16//2 24//2
f 31//4 4//4 14//4 32//4
f 6//1 8//1 15//1 16//1
f 8//4 21//4 23//4 15//4
f 40//7 28//7 27//7 26//7
f 15//6 23//6 24//6 16//6
f 6//6 22//6 20//6 12//6
f 31//6 21//6 18//6 29//6
f 25//5 17//5 19//5 30//5
f 36//4 12//4 20//4 37//4
f 39//2 29//2 18//2 38//2
f 34//2 10//2 29//2 39//2
f 3//5 25//5 30//5 1//5
f 4//6 31//6 29//6 10//6
f 2//2 27//2 28//2 13//2
f 21//4 31//4 32//4 23//4
f 23//6 32//6 28//6 24//6
f 24//8 37//8 20//8 22//8
f 40//9 37//9 24//9 28//9
f 19//4 37//4 40//4 30//4
f 3//2 34//2 39//2 25//2
f 25//2 39//2 38//2 17//2
f 5//4 36//4 37//4 19//4
f 30//4 40//4 33//4 1//4
f 7//3 35//3 36//3 5//3
f 17//2 38//2 35//2 7//2
f 1//1 33//1 34//1 3//1
